%TF.GenerationSoftware,KiCad,Pcbnew,10.0.3*%
%TF.CreationDate,2026-06-27T18:14:26-04:00*%
%TF.ProjectId,Teclado3Teclas,5465636c-6164-46f3-9354-65636c61732e,rev?*%
%TF.SameCoordinates,Original*%
%TF.FileFunction,Profile,NP*%
%FSLAX46Y46*%
G04 Gerber Fmt 4.6, Leading zero omitted, Abs format (unit mm)*
G04 Created by KiCad (PCBNEW 10.0.3) date 2026-06-27 18:14:26*
%MOMM*%
%LPD*%
G01*
G04 APERTURE LIST*
%TA.AperFunction,Profile*%
%ADD10C,0.050000*%
%TD*%
%TA.AperFunction,Profile*%
%ADD11C,0.100000*%
%TD*%
G04 APERTURE END LIST*
D10*
X118000000Y-83900000D02*
X185866511Y-83900000D01*
X185866511Y-131000000D01*
X118000000Y-131000000D01*
X118000000Y-83900000D01*
%TO.C,D2*%
D11*
X150700000Y-120185684D02*
X150700000Y-118780000D01*
X151605547Y-117982842D02*
X153194451Y-117982842D01*
X153194451Y-120982841D02*
X151605546Y-120982841D01*
X154099998Y-118780000D02*
X154099998Y-120185684D01*
X150650515Y-118563122D02*
G75*
G02*
X150700000Y-118780000I-450515J-216878D01*
G01*
X150650515Y-118563123D02*
G75*
G02*
X151353288Y-117914543I450514J216880D01*
G01*
X150700000Y-120185685D02*
G75*
G02*
X150650521Y-120402565I-500000J-15D01*
G01*
X151353288Y-121051140D02*
G75*
G02*
X150650516Y-120402562I-252258J431700D01*
G01*
X151353288Y-121051140D02*
G75*
G02*
X151605546Y-120982840I252262J-431710D01*
G01*
X151605547Y-117982842D02*
G75*
G02*
X151353288Y-117914543I3J500012D01*
G01*
X153194452Y-120982842D02*
G75*
G02*
X153446710Y-121051141I-3J-500009D01*
G01*
X153446709Y-117914543D02*
G75*
G02*
X153194451Y-117982842I-252261J431710D01*
G01*
X153446710Y-117914545D02*
G75*
G02*
X154149483Y-118563122I252258J-431700D01*
G01*
X154099998Y-118779999D02*
G75*
G02*
X154149483Y-118563122I499990J1D01*
G01*
X154149483Y-120402562D02*
G75*
G02*
X153446710Y-121051141I-450515J-216878D01*
G01*
X154149483Y-120402562D02*
G75*
G02*
X154099998Y-120185684I450505J216876D01*
G01*
%TO.C,D1*%
X131650000Y-120185684D02*
X131650000Y-118780000D01*
X132555547Y-117982842D02*
X134144451Y-117982842D01*
X134144451Y-120982841D02*
X132555546Y-120982841D01*
X135049998Y-118780000D02*
X135049998Y-120185684D01*
X131600515Y-118563122D02*
G75*
G02*
X131650000Y-118780000I-450515J-216878D01*
G01*
X131600515Y-118563123D02*
G75*
G02*
X132303288Y-117914543I450514J216880D01*
G01*
X131650000Y-120185685D02*
G75*
G02*
X131600521Y-120402565I-500000J-15D01*
G01*
X132303288Y-121051140D02*
G75*
G02*
X131600516Y-120402562I-252258J431700D01*
G01*
X132303288Y-121051140D02*
G75*
G02*
X132555546Y-120982840I252262J-431710D01*
G01*
X132555547Y-117982842D02*
G75*
G02*
X132303288Y-117914543I3J500012D01*
G01*
X134144452Y-120982842D02*
G75*
G02*
X134396710Y-121051141I-3J-500009D01*
G01*
X134396709Y-117914543D02*
G75*
G02*
X134144451Y-117982842I-252261J431710D01*
G01*
X134396710Y-117914545D02*
G75*
G02*
X135099483Y-118563122I252258J-431700D01*
G01*
X135049998Y-118779999D02*
G75*
G02*
X135099483Y-118563122I499990J1D01*
G01*
X135099483Y-120402562D02*
G75*
G02*
X134396710Y-121051141I-450515J-216878D01*
G01*
X135099483Y-120402562D02*
G75*
G02*
X135049998Y-120185684I450505J216876D01*
G01*
%TO.C,D3*%
X169750000Y-120185684D02*
X169750000Y-118780000D01*
X170655547Y-117982842D02*
X172244451Y-117982842D01*
X172244451Y-120982841D02*
X170655546Y-120982841D01*
X173149998Y-118780000D02*
X173149998Y-120185684D01*
X169700515Y-118563122D02*
G75*
G02*
X169750000Y-118780000I-450515J-216878D01*
G01*
X169700515Y-118563123D02*
G75*
G02*
X170403288Y-117914543I450514J216880D01*
G01*
X169750000Y-120185685D02*
G75*
G02*
X169700521Y-120402565I-500000J-15D01*
G01*
X170403288Y-121051140D02*
G75*
G02*
X169700516Y-120402562I-252258J431700D01*
G01*
X170403288Y-121051140D02*
G75*
G02*
X170655546Y-120982840I252262J-431710D01*
G01*
X170655547Y-117982842D02*
G75*
G02*
X170403288Y-117914543I3J500012D01*
G01*
X172244452Y-120982842D02*
G75*
G02*
X172496710Y-121051141I-3J-500009D01*
G01*
X172496709Y-117914543D02*
G75*
G02*
X172244451Y-117982842I-252261J431710D01*
G01*
X172496710Y-117914545D02*
G75*
G02*
X173199483Y-118563122I252258J-431700D01*
G01*
X173149998Y-118779999D02*
G75*
G02*
X173199483Y-118563122I499990J1D01*
G01*
X173199483Y-120402562D02*
G75*
G02*
X172496710Y-121051141I-450515J-216878D01*
G01*
X173199483Y-120402562D02*
G75*
G02*
X173149998Y-120185684I450505J216876D01*
G01*
%TD*%
M02*
