%TF.GenerationSoftware,KiCad,Pcbnew,10.0.3*%
%TF.CreationDate,2026-06-27T18:14:26-04:00*%
%TF.ProjectId,Teclado3Teclas,5465636c-6164-46f3-9354-65636c61732e,rev?*%
%TF.SameCoordinates,Original*%
%TF.FileFunction,Legend,Bot*%
%TF.FilePolarity,Positive*%
%FSLAX46Y46*%
G04 Gerber Fmt 4.6, Leading zero omitted, Abs format (unit mm)*
G04 Created by KiCad (PCBNEW 10.0.3) date 2026-06-27 18:14:26*
%MOMM*%
%LPD*%
G01*
G04 APERTURE LIST*
%ADD10C,0.100000*%
%ADD11C,0.101600*%
%ADD12C,0.150000*%
%ADD13C,0.127000*%
%ADD14C,0.120000*%
%ADD15C,0.254000*%
%ADD16C,0.025400*%
G04 APERTURE END LIST*
D10*
X181443734Y-88176760D02*
X180967544Y-88176760D01*
X181538972Y-88462475D02*
X181205639Y-87462475D01*
X181205639Y-87462475D02*
X180872306Y-88462475D01*
X180538972Y-87795808D02*
X180538972Y-88462475D01*
X180538972Y-87891046D02*
X180491353Y-87843427D01*
X180491353Y-87843427D02*
X180396115Y-87795808D01*
X180396115Y-87795808D02*
X180253258Y-87795808D01*
X180253258Y-87795808D02*
X180158020Y-87843427D01*
X180158020Y-87843427D02*
X180110401Y-87938665D01*
X180110401Y-87938665D02*
X180110401Y-88462475D01*
X179205639Y-88462475D02*
X179205639Y-87462475D01*
X179205639Y-88414856D02*
X179300877Y-88462475D01*
X179300877Y-88462475D02*
X179491353Y-88462475D01*
X179491353Y-88462475D02*
X179586591Y-88414856D01*
X179586591Y-88414856D02*
X179634210Y-88367236D01*
X179634210Y-88367236D02*
X179681829Y-88271998D01*
X179681829Y-88271998D02*
X179681829Y-87986284D01*
X179681829Y-87986284D02*
X179634210Y-87891046D01*
X179634210Y-87891046D02*
X179586591Y-87843427D01*
X179586591Y-87843427D02*
X179491353Y-87795808D01*
X179491353Y-87795808D02*
X179300877Y-87795808D01*
X179300877Y-87795808D02*
X179205639Y-87843427D01*
X178729448Y-88462475D02*
X178729448Y-87795808D01*
X178729448Y-87986284D02*
X178681829Y-87891046D01*
X178681829Y-87891046D02*
X178634210Y-87843427D01*
X178634210Y-87843427D02*
X178538972Y-87795808D01*
X178538972Y-87795808D02*
X178443734Y-87795808D01*
X177729448Y-88414856D02*
X177824686Y-88462475D01*
X177824686Y-88462475D02*
X178015162Y-88462475D01*
X178015162Y-88462475D02*
X178110400Y-88414856D01*
X178110400Y-88414856D02*
X178158019Y-88319617D01*
X178158019Y-88319617D02*
X178158019Y-87938665D01*
X178158019Y-87938665D02*
X178110400Y-87843427D01*
X178110400Y-87843427D02*
X178015162Y-87795808D01*
X178015162Y-87795808D02*
X177824686Y-87795808D01*
X177824686Y-87795808D02*
X177729448Y-87843427D01*
X177729448Y-87843427D02*
X177681829Y-87938665D01*
X177681829Y-87938665D02*
X177681829Y-88033903D01*
X177681829Y-88033903D02*
X178158019Y-88129141D01*
X176824686Y-88462475D02*
X176824686Y-87938665D01*
X176824686Y-87938665D02*
X176872305Y-87843427D01*
X176872305Y-87843427D02*
X176967543Y-87795808D01*
X176967543Y-87795808D02*
X177158019Y-87795808D01*
X177158019Y-87795808D02*
X177253257Y-87843427D01*
X176824686Y-88414856D02*
X176919924Y-88462475D01*
X176919924Y-88462475D02*
X177158019Y-88462475D01*
X177158019Y-88462475D02*
X177253257Y-88414856D01*
X177253257Y-88414856D02*
X177300876Y-88319617D01*
X177300876Y-88319617D02*
X177300876Y-88224379D01*
X177300876Y-88224379D02*
X177253257Y-88129141D01*
X177253257Y-88129141D02*
X177158019Y-88081522D01*
X177158019Y-88081522D02*
X176919924Y-88081522D01*
X176919924Y-88081522D02*
X176824686Y-88033903D01*
X175586590Y-87938665D02*
X175253257Y-87938665D01*
X175110400Y-88462475D02*
X175586590Y-88462475D01*
X175586590Y-88462475D02*
X175586590Y-87462475D01*
X175586590Y-87462475D02*
X175110400Y-87462475D01*
X174681828Y-88367236D02*
X174634209Y-88414856D01*
X174634209Y-88414856D02*
X174681828Y-88462475D01*
X174681828Y-88462475D02*
X174729447Y-88414856D01*
X174729447Y-88414856D02*
X174681828Y-88367236D01*
X174681828Y-88367236D02*
X174681828Y-88462475D01*
X172872305Y-88462475D02*
X173205638Y-87986284D01*
X173443733Y-88462475D02*
X173443733Y-87462475D01*
X173443733Y-87462475D02*
X173062781Y-87462475D01*
X173062781Y-87462475D02*
X172967543Y-87510094D01*
X172967543Y-87510094D02*
X172919924Y-87557713D01*
X172919924Y-87557713D02*
X172872305Y-87652951D01*
X172872305Y-87652951D02*
X172872305Y-87795808D01*
X172872305Y-87795808D02*
X172919924Y-87891046D01*
X172919924Y-87891046D02*
X172967543Y-87938665D01*
X172967543Y-87938665D02*
X173062781Y-87986284D01*
X173062781Y-87986284D02*
X173443733Y-87986284D01*
X172300876Y-88462475D02*
X172396114Y-88414856D01*
X172396114Y-88414856D02*
X172443733Y-88367236D01*
X172443733Y-88367236D02*
X172491352Y-88271998D01*
X172491352Y-88271998D02*
X172491352Y-87986284D01*
X172491352Y-87986284D02*
X172443733Y-87891046D01*
X172443733Y-87891046D02*
X172396114Y-87843427D01*
X172396114Y-87843427D02*
X172300876Y-87795808D01*
X172300876Y-87795808D02*
X172158019Y-87795808D01*
X172158019Y-87795808D02*
X172062781Y-87843427D01*
X172062781Y-87843427D02*
X172015162Y-87891046D01*
X172015162Y-87891046D02*
X171967543Y-87986284D01*
X171967543Y-87986284D02*
X171967543Y-88271998D01*
X171967543Y-88271998D02*
X172015162Y-88367236D01*
X172015162Y-88367236D02*
X172062781Y-88414856D01*
X172062781Y-88414856D02*
X172158019Y-88462475D01*
X172158019Y-88462475D02*
X172300876Y-88462475D01*
X171586590Y-88414856D02*
X171491352Y-88462475D01*
X171491352Y-88462475D02*
X171300876Y-88462475D01*
X171300876Y-88462475D02*
X171205638Y-88414856D01*
X171205638Y-88414856D02*
X171158019Y-88319617D01*
X171158019Y-88319617D02*
X171158019Y-88271998D01*
X171158019Y-88271998D02*
X171205638Y-88176760D01*
X171205638Y-88176760D02*
X171300876Y-88129141D01*
X171300876Y-88129141D02*
X171443733Y-88129141D01*
X171443733Y-88129141D02*
X171538971Y-88081522D01*
X171538971Y-88081522D02*
X171586590Y-87986284D01*
X171586590Y-87986284D02*
X171586590Y-87938665D01*
X171586590Y-87938665D02*
X171538971Y-87843427D01*
X171538971Y-87843427D02*
X171443733Y-87795808D01*
X171443733Y-87795808D02*
X171300876Y-87795808D01*
X171300876Y-87795808D02*
X171205638Y-87843427D01*
X170300876Y-88462475D02*
X170300876Y-87938665D01*
X170300876Y-87938665D02*
X170348495Y-87843427D01*
X170348495Y-87843427D02*
X170443733Y-87795808D01*
X170443733Y-87795808D02*
X170634209Y-87795808D01*
X170634209Y-87795808D02*
X170729447Y-87843427D01*
X170300876Y-88414856D02*
X170396114Y-88462475D01*
X170396114Y-88462475D02*
X170634209Y-88462475D01*
X170634209Y-88462475D02*
X170729447Y-88414856D01*
X170729447Y-88414856D02*
X170777066Y-88319617D01*
X170777066Y-88319617D02*
X170777066Y-88224379D01*
X170777066Y-88224379D02*
X170729447Y-88129141D01*
X170729447Y-88129141D02*
X170634209Y-88081522D01*
X170634209Y-88081522D02*
X170396114Y-88081522D01*
X170396114Y-88081522D02*
X170300876Y-88033903D01*
X169824685Y-88462475D02*
X169824685Y-87795808D01*
X169824685Y-87986284D02*
X169777066Y-87891046D01*
X169777066Y-87891046D02*
X169729447Y-87843427D01*
X169729447Y-87843427D02*
X169634209Y-87795808D01*
X169634209Y-87795808D02*
X169538971Y-87795808D01*
X169205637Y-88462475D02*
X169205637Y-87795808D01*
X169205637Y-87462475D02*
X169253256Y-87510094D01*
X169253256Y-87510094D02*
X169205637Y-87557713D01*
X169205637Y-87557713D02*
X169158018Y-87510094D01*
X169158018Y-87510094D02*
X169205637Y-87462475D01*
X169205637Y-87462475D02*
X169205637Y-87557713D01*
X168586590Y-88462475D02*
X168681828Y-88414856D01*
X168681828Y-88414856D02*
X168729447Y-88367236D01*
X168729447Y-88367236D02*
X168777066Y-88271998D01*
X168777066Y-88271998D02*
X168777066Y-87986284D01*
X168777066Y-87986284D02*
X168729447Y-87891046D01*
X168729447Y-87891046D02*
X168681828Y-87843427D01*
X168681828Y-87843427D02*
X168586590Y-87795808D01*
X168586590Y-87795808D02*
X168443733Y-87795808D01*
X168443733Y-87795808D02*
X168348495Y-87843427D01*
X168348495Y-87843427D02*
X168300876Y-87891046D01*
X168300876Y-87891046D02*
X168253257Y-87986284D01*
X168253257Y-87986284D02*
X168253257Y-88271998D01*
X168253257Y-88271998D02*
X168300876Y-88367236D01*
X168300876Y-88367236D02*
X168348495Y-88414856D01*
X168348495Y-88414856D02*
X168443733Y-88462475D01*
X168443733Y-88462475D02*
X168586590Y-88462475D01*
X167062780Y-88462475D02*
X167062780Y-87462475D01*
X167062780Y-87462475D02*
X166729447Y-88176760D01*
X166729447Y-88176760D02*
X166396114Y-87462475D01*
X166396114Y-87462475D02*
X166396114Y-88462475D01*
X165919923Y-88367236D02*
X165872304Y-88414856D01*
X165872304Y-88414856D02*
X165919923Y-88462475D01*
X165919923Y-88462475D02*
X165967542Y-88414856D01*
X165967542Y-88414856D02*
X165919923Y-88367236D01*
X165919923Y-88367236D02*
X165919923Y-88462475D01*
X180824687Y-90072419D02*
X181158020Y-89596228D01*
X181396115Y-90072419D02*
X181396115Y-89072419D01*
X181396115Y-89072419D02*
X181015163Y-89072419D01*
X181015163Y-89072419D02*
X180919925Y-89120038D01*
X180919925Y-89120038D02*
X180872306Y-89167657D01*
X180872306Y-89167657D02*
X180824687Y-89262895D01*
X180824687Y-89262895D02*
X180824687Y-89405752D01*
X180824687Y-89405752D02*
X180872306Y-89500990D01*
X180872306Y-89500990D02*
X180919925Y-89548609D01*
X180919925Y-89548609D02*
X181015163Y-89596228D01*
X181015163Y-89596228D02*
X181396115Y-89596228D01*
X180015163Y-90024800D02*
X180110401Y-90072419D01*
X180110401Y-90072419D02*
X180300877Y-90072419D01*
X180300877Y-90072419D02*
X180396115Y-90024800D01*
X180396115Y-90024800D02*
X180443734Y-89929561D01*
X180443734Y-89929561D02*
X180443734Y-89548609D01*
X180443734Y-89548609D02*
X180396115Y-89453371D01*
X180396115Y-89453371D02*
X180300877Y-89405752D01*
X180300877Y-89405752D02*
X180110401Y-89405752D01*
X180110401Y-89405752D02*
X180015163Y-89453371D01*
X180015163Y-89453371D02*
X179967544Y-89548609D01*
X179967544Y-89548609D02*
X179967544Y-89643847D01*
X179967544Y-89643847D02*
X180443734Y-89739085D01*
X179538972Y-89405752D02*
X179538972Y-90405752D01*
X179538972Y-89453371D02*
X179443734Y-89405752D01*
X179443734Y-89405752D02*
X179253258Y-89405752D01*
X179253258Y-89405752D02*
X179158020Y-89453371D01*
X179158020Y-89453371D02*
X179110401Y-89500990D01*
X179110401Y-89500990D02*
X179062782Y-89596228D01*
X179062782Y-89596228D02*
X179062782Y-89881942D01*
X179062782Y-89881942D02*
X179110401Y-89977180D01*
X179110401Y-89977180D02*
X179158020Y-90024800D01*
X179158020Y-90024800D02*
X179253258Y-90072419D01*
X179253258Y-90072419D02*
X179443734Y-90072419D01*
X179443734Y-90072419D02*
X179538972Y-90024800D01*
X178634210Y-89977180D02*
X178586591Y-90024800D01*
X178586591Y-90024800D02*
X178634210Y-90072419D01*
X178634210Y-90072419D02*
X178681829Y-90024800D01*
X178681829Y-90024800D02*
X178634210Y-89977180D01*
X178634210Y-89977180D02*
X178634210Y-90072419D01*
X177396115Y-90072419D02*
X177396115Y-89072419D01*
X177396115Y-89072419D02*
X177158020Y-89072419D01*
X177158020Y-89072419D02*
X177015163Y-89120038D01*
X177015163Y-89120038D02*
X176919925Y-89215276D01*
X176919925Y-89215276D02*
X176872306Y-89310514D01*
X176872306Y-89310514D02*
X176824687Y-89500990D01*
X176824687Y-89500990D02*
X176824687Y-89643847D01*
X176824687Y-89643847D02*
X176872306Y-89834323D01*
X176872306Y-89834323D02*
X176919925Y-89929561D01*
X176919925Y-89929561D02*
X177015163Y-90024800D01*
X177015163Y-90024800D02*
X177158020Y-90072419D01*
X177158020Y-90072419D02*
X177396115Y-90072419D01*
X176253258Y-90072419D02*
X176348496Y-90024800D01*
X176348496Y-90024800D02*
X176396115Y-89977180D01*
X176396115Y-89977180D02*
X176443734Y-89881942D01*
X176443734Y-89881942D02*
X176443734Y-89596228D01*
X176443734Y-89596228D02*
X176396115Y-89500990D01*
X176396115Y-89500990D02*
X176348496Y-89453371D01*
X176348496Y-89453371D02*
X176253258Y-89405752D01*
X176253258Y-89405752D02*
X176110401Y-89405752D01*
X176110401Y-89405752D02*
X176015163Y-89453371D01*
X176015163Y-89453371D02*
X175967544Y-89500990D01*
X175967544Y-89500990D02*
X175919925Y-89596228D01*
X175919925Y-89596228D02*
X175919925Y-89881942D01*
X175919925Y-89881942D02*
X175967544Y-89977180D01*
X175967544Y-89977180D02*
X176015163Y-90024800D01*
X176015163Y-90024800D02*
X176110401Y-90072419D01*
X176110401Y-90072419D02*
X176253258Y-90072419D01*
X175491353Y-90072419D02*
X175491353Y-89405752D01*
X175491353Y-89500990D02*
X175443734Y-89453371D01*
X175443734Y-89453371D02*
X175348496Y-89405752D01*
X175348496Y-89405752D02*
X175205639Y-89405752D01*
X175205639Y-89405752D02*
X175110401Y-89453371D01*
X175110401Y-89453371D02*
X175062782Y-89548609D01*
X175062782Y-89548609D02*
X175062782Y-90072419D01*
X175062782Y-89548609D02*
X175015163Y-89453371D01*
X175015163Y-89453371D02*
X174919925Y-89405752D01*
X174919925Y-89405752D02*
X174777068Y-89405752D01*
X174777068Y-89405752D02*
X174681829Y-89453371D01*
X174681829Y-89453371D02*
X174634210Y-89548609D01*
X174634210Y-89548609D02*
X174634210Y-90072419D01*
X174158020Y-89977180D02*
X174110401Y-90024800D01*
X174110401Y-90024800D02*
X174158020Y-90072419D01*
X174158020Y-90072419D02*
X174205639Y-90024800D01*
X174205639Y-90024800D02*
X174158020Y-89977180D01*
X174158020Y-89977180D02*
X174158020Y-90072419D01*
D11*
X132852333Y-100376985D02*
X132852333Y-101096652D01*
X132852333Y-101096652D02*
X132810000Y-101181318D01*
X132810000Y-101181318D02*
X132767666Y-101223652D01*
X132767666Y-101223652D02*
X132683000Y-101265985D01*
X132683000Y-101265985D02*
X132513666Y-101265985D01*
X132513666Y-101265985D02*
X132429000Y-101223652D01*
X132429000Y-101223652D02*
X132386666Y-101181318D01*
X132386666Y-101181318D02*
X132344333Y-101096652D01*
X132344333Y-101096652D02*
X132344333Y-100376985D01*
X131455333Y-101265985D02*
X131963333Y-101265985D01*
X131709333Y-101265985D02*
X131709333Y-100376985D01*
X131709333Y-100376985D02*
X131794000Y-100503985D01*
X131794000Y-100503985D02*
X131878667Y-100588652D01*
X131878667Y-100588652D02*
X131963333Y-100630985D01*
D12*
X136936904Y-97227200D02*
X136794047Y-97274819D01*
X136794047Y-97274819D02*
X136555952Y-97274819D01*
X136555952Y-97274819D02*
X136460714Y-97227200D01*
X136460714Y-97227200D02*
X136413095Y-97179580D01*
X136413095Y-97179580D02*
X136365476Y-97084342D01*
X136365476Y-97084342D02*
X136365476Y-96989104D01*
X136365476Y-96989104D02*
X136413095Y-96893866D01*
X136413095Y-96893866D02*
X136460714Y-96846247D01*
X136460714Y-96846247D02*
X136555952Y-96798628D01*
X136555952Y-96798628D02*
X136746428Y-96751009D01*
X136746428Y-96751009D02*
X136841666Y-96703390D01*
X136841666Y-96703390D02*
X136889285Y-96655771D01*
X136889285Y-96655771D02*
X136936904Y-96560533D01*
X136936904Y-96560533D02*
X136936904Y-96465295D01*
X136936904Y-96465295D02*
X136889285Y-96370057D01*
X136889285Y-96370057D02*
X136841666Y-96322438D01*
X136841666Y-96322438D02*
X136746428Y-96274819D01*
X136746428Y-96274819D02*
X136508333Y-96274819D01*
X136508333Y-96274819D02*
X136365476Y-96322438D01*
X135555952Y-97227200D02*
X135651190Y-97274819D01*
X135651190Y-97274819D02*
X135841666Y-97274819D01*
X135841666Y-97274819D02*
X135936904Y-97227200D01*
X135936904Y-97227200D02*
X135984523Y-97131961D01*
X135984523Y-97131961D02*
X135984523Y-96751009D01*
X135984523Y-96751009D02*
X135936904Y-96655771D01*
X135936904Y-96655771D02*
X135841666Y-96608152D01*
X135841666Y-96608152D02*
X135651190Y-96608152D01*
X135651190Y-96608152D02*
X135555952Y-96655771D01*
X135555952Y-96655771D02*
X135508333Y-96751009D01*
X135508333Y-96751009D02*
X135508333Y-96846247D01*
X135508333Y-96846247D02*
X135984523Y-96941485D01*
X134698809Y-97227200D02*
X134794047Y-97274819D01*
X134794047Y-97274819D02*
X134984523Y-97274819D01*
X134984523Y-97274819D02*
X135079761Y-97227200D01*
X135079761Y-97227200D02*
X135127380Y-97131961D01*
X135127380Y-97131961D02*
X135127380Y-96751009D01*
X135127380Y-96751009D02*
X135079761Y-96655771D01*
X135079761Y-96655771D02*
X134984523Y-96608152D01*
X134984523Y-96608152D02*
X134794047Y-96608152D01*
X134794047Y-96608152D02*
X134698809Y-96655771D01*
X134698809Y-96655771D02*
X134651190Y-96751009D01*
X134651190Y-96751009D02*
X134651190Y-96846247D01*
X134651190Y-96846247D02*
X135127380Y-96941485D01*
X133841666Y-97227200D02*
X133936904Y-97274819D01*
X133936904Y-97274819D02*
X134127380Y-97274819D01*
X134127380Y-97274819D02*
X134222618Y-97227200D01*
X134222618Y-97227200D02*
X134270237Y-97131961D01*
X134270237Y-97131961D02*
X134270237Y-96751009D01*
X134270237Y-96751009D02*
X134222618Y-96655771D01*
X134222618Y-96655771D02*
X134127380Y-96608152D01*
X134127380Y-96608152D02*
X133936904Y-96608152D01*
X133936904Y-96608152D02*
X133841666Y-96655771D01*
X133841666Y-96655771D02*
X133794047Y-96751009D01*
X133794047Y-96751009D02*
X133794047Y-96846247D01*
X133794047Y-96846247D02*
X134270237Y-96941485D01*
X132936904Y-97274819D02*
X132936904Y-96274819D01*
X132936904Y-97227200D02*
X133032142Y-97274819D01*
X133032142Y-97274819D02*
X133222618Y-97274819D01*
X133222618Y-97274819D02*
X133317856Y-97227200D01*
X133317856Y-97227200D02*
X133365475Y-97179580D01*
X133365475Y-97179580D02*
X133413094Y-97084342D01*
X133413094Y-97084342D02*
X133413094Y-96798628D01*
X133413094Y-96798628D02*
X133365475Y-96703390D01*
X133365475Y-96703390D02*
X133317856Y-96655771D01*
X133317856Y-96655771D02*
X133222618Y-96608152D01*
X133222618Y-96608152D02*
X133032142Y-96608152D01*
X133032142Y-96608152D02*
X132936904Y-96655771D01*
X131746427Y-97227200D02*
X131603570Y-97274819D01*
X131603570Y-97274819D02*
X131365475Y-97274819D01*
X131365475Y-97274819D02*
X131270237Y-97227200D01*
X131270237Y-97227200D02*
X131222618Y-97179580D01*
X131222618Y-97179580D02*
X131174999Y-97084342D01*
X131174999Y-97084342D02*
X131174999Y-96989104D01*
X131174999Y-96989104D02*
X131222618Y-96893866D01*
X131222618Y-96893866D02*
X131270237Y-96846247D01*
X131270237Y-96846247D02*
X131365475Y-96798628D01*
X131365475Y-96798628D02*
X131555951Y-96751009D01*
X131555951Y-96751009D02*
X131651189Y-96703390D01*
X131651189Y-96703390D02*
X131698808Y-96655771D01*
X131698808Y-96655771D02*
X131746427Y-96560533D01*
X131746427Y-96560533D02*
X131746427Y-96465295D01*
X131746427Y-96465295D02*
X131698808Y-96370057D01*
X131698808Y-96370057D02*
X131651189Y-96322438D01*
X131651189Y-96322438D02*
X131555951Y-96274819D01*
X131555951Y-96274819D02*
X131317856Y-96274819D01*
X131317856Y-96274819D02*
X131174999Y-96322438D01*
X130889284Y-96608152D02*
X130508332Y-96608152D01*
X130746427Y-96274819D02*
X130746427Y-97131961D01*
X130746427Y-97131961D02*
X130698808Y-97227200D01*
X130698808Y-97227200D02*
X130603570Y-97274819D01*
X130603570Y-97274819D02*
X130508332Y-97274819D01*
X129746427Y-96608152D02*
X129746427Y-97274819D01*
X130174998Y-96608152D02*
X130174998Y-97131961D01*
X130174998Y-97131961D02*
X130127379Y-97227200D01*
X130127379Y-97227200D02*
X130032141Y-97274819D01*
X130032141Y-97274819D02*
X129889284Y-97274819D01*
X129889284Y-97274819D02*
X129794046Y-97227200D01*
X129794046Y-97227200D02*
X129746427Y-97179580D01*
X128841665Y-97274819D02*
X128841665Y-96274819D01*
X128841665Y-97227200D02*
X128936903Y-97274819D01*
X128936903Y-97274819D02*
X129127379Y-97274819D01*
X129127379Y-97274819D02*
X129222617Y-97227200D01*
X129222617Y-97227200D02*
X129270236Y-97179580D01*
X129270236Y-97179580D02*
X129317855Y-97084342D01*
X129317855Y-97084342D02*
X129317855Y-96798628D01*
X129317855Y-96798628D02*
X129270236Y-96703390D01*
X129270236Y-96703390D02*
X129222617Y-96655771D01*
X129222617Y-96655771D02*
X129127379Y-96608152D01*
X129127379Y-96608152D02*
X128936903Y-96608152D01*
X128936903Y-96608152D02*
X128841665Y-96655771D01*
X128365474Y-97274819D02*
X128365474Y-96608152D01*
X128365474Y-96274819D02*
X128413093Y-96322438D01*
X128413093Y-96322438D02*
X128365474Y-96370057D01*
X128365474Y-96370057D02*
X128317855Y-96322438D01*
X128317855Y-96322438D02*
X128365474Y-96274819D01*
X128365474Y-96274819D02*
X128365474Y-96370057D01*
X127746427Y-97274819D02*
X127841665Y-97227200D01*
X127841665Y-97227200D02*
X127889284Y-97179580D01*
X127889284Y-97179580D02*
X127936903Y-97084342D01*
X127936903Y-97084342D02*
X127936903Y-96798628D01*
X127936903Y-96798628D02*
X127889284Y-96703390D01*
X127889284Y-96703390D02*
X127841665Y-96655771D01*
X127841665Y-96655771D02*
X127746427Y-96608152D01*
X127746427Y-96608152D02*
X127603570Y-96608152D01*
X127603570Y-96608152D02*
X127508332Y-96655771D01*
X127508332Y-96655771D02*
X127460713Y-96703390D01*
X127460713Y-96703390D02*
X127413094Y-96798628D01*
X127413094Y-96798628D02*
X127413094Y-97084342D01*
X127413094Y-97084342D02*
X127460713Y-97179580D01*
X127460713Y-97179580D02*
X127508332Y-97227200D01*
X127508332Y-97227200D02*
X127603570Y-97274819D01*
X127603570Y-97274819D02*
X127746427Y-97274819D01*
X133698808Y-98274819D02*
X133032142Y-99274819D01*
X133032142Y-98274819D02*
X133698808Y-99274819D01*
X132651189Y-99274819D02*
X132651189Y-98274819D01*
X132222618Y-98989104D02*
X131746428Y-98989104D01*
X132317856Y-99274819D02*
X131984523Y-98274819D01*
X131984523Y-98274819D02*
X131651190Y-99274819D01*
X131127380Y-98274819D02*
X130936904Y-98274819D01*
X130936904Y-98274819D02*
X130841666Y-98322438D01*
X130841666Y-98322438D02*
X130746428Y-98417676D01*
X130746428Y-98417676D02*
X130698809Y-98608152D01*
X130698809Y-98608152D02*
X130698809Y-98941485D01*
X130698809Y-98941485D02*
X130746428Y-99131961D01*
X130746428Y-99131961D02*
X130841666Y-99227200D01*
X130841666Y-99227200D02*
X130936904Y-99274819D01*
X130936904Y-99274819D02*
X131127380Y-99274819D01*
X131127380Y-99274819D02*
X131222618Y-99227200D01*
X131222618Y-99227200D02*
X131317856Y-99131961D01*
X131317856Y-99131961D02*
X131365475Y-98941485D01*
X131365475Y-98941485D02*
X131365475Y-98608152D01*
X131365475Y-98608152D02*
X131317856Y-98417676D01*
X131317856Y-98417676D02*
X131222618Y-98322438D01*
X131222618Y-98322438D02*
X131127380Y-98274819D01*
D10*
%TO.C,D2*%
X148199999Y-118482842D02*
X149099999Y-117582842D01*
X148199999Y-117582842D01*
X148199999Y-118482842D01*
G36*
X148199999Y-118482842D02*
G01*
X148199999Y-117582842D01*
X149099999Y-117582842D01*
X148199999Y-118482842D01*
G37*
%TO.C,D1*%
X129149999Y-118482842D02*
X130049999Y-117582842D01*
X129149999Y-117582842D01*
X129149999Y-118482842D01*
G36*
X129149999Y-118482842D02*
G01*
X129149999Y-117582842D01*
X130049999Y-117582842D01*
X129149999Y-118482842D01*
G37*
%TO.C,D3*%
X167249999Y-118482842D02*
X168149999Y-117582842D01*
X167249999Y-117582842D01*
X167249999Y-118482842D01*
G36*
X167249999Y-118482842D02*
G01*
X167249999Y-117582842D01*
X168149999Y-117582842D01*
X167249999Y-118482842D01*
G37*
%TO.C,U1*%
D13*
X123275000Y-106820000D02*
X123275000Y-89820000D01*
X125275000Y-87820910D02*
X139075000Y-87820910D01*
X127675000Y-86395970D02*
X127675000Y-93749270D01*
X127675000Y-93749270D02*
X136675000Y-93749270D01*
X136675000Y-86395970D02*
X127675000Y-86395970D01*
X136675000Y-93749270D02*
X136675000Y-86395970D01*
X139075000Y-108820000D02*
X125275000Y-108820000D01*
X141075000Y-89820000D02*
X141075000Y-106820000D01*
D14*
X123275000Y-89820000D02*
G75*
G02*
X125275000Y-87820000I2044610J-44610D01*
G01*
X125275000Y-108820000D02*
G75*
G02*
X123275000Y-106820000I0J2000000D01*
G01*
X139075000Y-87820000D02*
G75*
G02*
X141075000Y-89820000I-44612J-2044612D01*
G01*
X141075000Y-106820000D02*
G75*
G02*
X139075000Y-108820000I-2044857J44857D01*
G01*
D15*
X143302000Y-89520000D02*
G75*
G02*
X143048000Y-89520000I-127000J0D01*
G01*
X143048000Y-89520000D02*
G75*
G02*
X143302000Y-89520000I127000J0D01*
G01*
D16*
X141062715Y-89758295D02*
X141059667Y-89709527D01*
X141055603Y-89660506D01*
X141062715Y-89758295D01*
X123285508Y-106841574D02*
X123287287Y-106890850D01*
X123290335Y-106939618D01*
X123294399Y-106988639D01*
X123299732Y-107037407D01*
X123306336Y-107086175D01*
X123313956Y-107134690D01*
X123322847Y-107182950D01*
X123332752Y-107230955D01*
X123285508Y-106841574D01*
%TD*%
M02*
