%TF.GenerationSoftware,KiCad,Pcbnew,10.0.3*%
%TF.CreationDate,2026-06-27T18:14:26-04:00*%
%TF.ProjectId,Teclado3Teclas,5465636c-6164-46f3-9354-65636c61732e,rev?*%
%TF.SameCoordinates,Original*%
%TF.FileFunction,Legend,Top*%
%TF.FilePolarity,Positive*%
%FSLAX46Y46*%
G04 Gerber Fmt 4.6, Leading zero omitted, Abs format (unit mm)*
G04 Created by KiCad (PCBNEW 10.0.3) date 2026-06-27 18:14:26*
%MOMM*%
%LPD*%
G01*
G04 APERTURE LIST*
%ADD10C,0.100000*%
%ADD11C,0.200000*%
%ADD12C,0.150000*%
%ADD13C,0.120000*%
G04 APERTURE END LIST*
D10*
X143600000Y-96700000D02*
X181600000Y-96700000D01*
X181600000Y-106700000D01*
X143600000Y-106700000D01*
X143600000Y-96700000D01*
X119976760Y-128443734D02*
X119976760Y-127967544D01*
X120262475Y-128538972D02*
X119262475Y-128205639D01*
X119262475Y-128205639D02*
X120262475Y-127872306D01*
X119595808Y-127538972D02*
X120262475Y-127538972D01*
X119691046Y-127538972D02*
X119643427Y-127491353D01*
X119643427Y-127491353D02*
X119595808Y-127396115D01*
X119595808Y-127396115D02*
X119595808Y-127253258D01*
X119595808Y-127253258D02*
X119643427Y-127158020D01*
X119643427Y-127158020D02*
X119738665Y-127110401D01*
X119738665Y-127110401D02*
X120262475Y-127110401D01*
X120262475Y-126205639D02*
X119262475Y-126205639D01*
X120214856Y-126205639D02*
X120262475Y-126300877D01*
X120262475Y-126300877D02*
X120262475Y-126491353D01*
X120262475Y-126491353D02*
X120214856Y-126586591D01*
X120214856Y-126586591D02*
X120167236Y-126634210D01*
X120167236Y-126634210D02*
X120071998Y-126681829D01*
X120071998Y-126681829D02*
X119786284Y-126681829D01*
X119786284Y-126681829D02*
X119691046Y-126634210D01*
X119691046Y-126634210D02*
X119643427Y-126586591D01*
X119643427Y-126586591D02*
X119595808Y-126491353D01*
X119595808Y-126491353D02*
X119595808Y-126300877D01*
X119595808Y-126300877D02*
X119643427Y-126205639D01*
X120262475Y-125729448D02*
X119595808Y-125729448D01*
X119786284Y-125729448D02*
X119691046Y-125681829D01*
X119691046Y-125681829D02*
X119643427Y-125634210D01*
X119643427Y-125634210D02*
X119595808Y-125538972D01*
X119595808Y-125538972D02*
X119595808Y-125443734D01*
X120214856Y-124729448D02*
X120262475Y-124824686D01*
X120262475Y-124824686D02*
X120262475Y-125015162D01*
X120262475Y-125015162D02*
X120214856Y-125110400D01*
X120214856Y-125110400D02*
X120119617Y-125158019D01*
X120119617Y-125158019D02*
X119738665Y-125158019D01*
X119738665Y-125158019D02*
X119643427Y-125110400D01*
X119643427Y-125110400D02*
X119595808Y-125015162D01*
X119595808Y-125015162D02*
X119595808Y-124824686D01*
X119595808Y-124824686D02*
X119643427Y-124729448D01*
X119643427Y-124729448D02*
X119738665Y-124681829D01*
X119738665Y-124681829D02*
X119833903Y-124681829D01*
X119833903Y-124681829D02*
X119929141Y-125158019D01*
X120262475Y-123824686D02*
X119738665Y-123824686D01*
X119738665Y-123824686D02*
X119643427Y-123872305D01*
X119643427Y-123872305D02*
X119595808Y-123967543D01*
X119595808Y-123967543D02*
X119595808Y-124158019D01*
X119595808Y-124158019D02*
X119643427Y-124253257D01*
X120214856Y-123824686D02*
X120262475Y-123919924D01*
X120262475Y-123919924D02*
X120262475Y-124158019D01*
X120262475Y-124158019D02*
X120214856Y-124253257D01*
X120214856Y-124253257D02*
X120119617Y-124300876D01*
X120119617Y-124300876D02*
X120024379Y-124300876D01*
X120024379Y-124300876D02*
X119929141Y-124253257D01*
X119929141Y-124253257D02*
X119881522Y-124158019D01*
X119881522Y-124158019D02*
X119881522Y-123919924D01*
X119881522Y-123919924D02*
X119833903Y-123824686D01*
X119738665Y-122586590D02*
X119738665Y-122253257D01*
X120262475Y-122110400D02*
X120262475Y-122586590D01*
X120262475Y-122586590D02*
X119262475Y-122586590D01*
X119262475Y-122586590D02*
X119262475Y-122110400D01*
X120167236Y-121681828D02*
X120214856Y-121634209D01*
X120214856Y-121634209D02*
X120262475Y-121681828D01*
X120262475Y-121681828D02*
X120214856Y-121729447D01*
X120214856Y-121729447D02*
X120167236Y-121681828D01*
X120167236Y-121681828D02*
X120262475Y-121681828D01*
X120262475Y-119872305D02*
X119786284Y-120205638D01*
X120262475Y-120443733D02*
X119262475Y-120443733D01*
X119262475Y-120443733D02*
X119262475Y-120062781D01*
X119262475Y-120062781D02*
X119310094Y-119967543D01*
X119310094Y-119967543D02*
X119357713Y-119919924D01*
X119357713Y-119919924D02*
X119452951Y-119872305D01*
X119452951Y-119872305D02*
X119595808Y-119872305D01*
X119595808Y-119872305D02*
X119691046Y-119919924D01*
X119691046Y-119919924D02*
X119738665Y-119967543D01*
X119738665Y-119967543D02*
X119786284Y-120062781D01*
X119786284Y-120062781D02*
X119786284Y-120443733D01*
X120262475Y-119300876D02*
X120214856Y-119396114D01*
X120214856Y-119396114D02*
X120167236Y-119443733D01*
X120167236Y-119443733D02*
X120071998Y-119491352D01*
X120071998Y-119491352D02*
X119786284Y-119491352D01*
X119786284Y-119491352D02*
X119691046Y-119443733D01*
X119691046Y-119443733D02*
X119643427Y-119396114D01*
X119643427Y-119396114D02*
X119595808Y-119300876D01*
X119595808Y-119300876D02*
X119595808Y-119158019D01*
X119595808Y-119158019D02*
X119643427Y-119062781D01*
X119643427Y-119062781D02*
X119691046Y-119015162D01*
X119691046Y-119015162D02*
X119786284Y-118967543D01*
X119786284Y-118967543D02*
X120071998Y-118967543D01*
X120071998Y-118967543D02*
X120167236Y-119015162D01*
X120167236Y-119015162D02*
X120214856Y-119062781D01*
X120214856Y-119062781D02*
X120262475Y-119158019D01*
X120262475Y-119158019D02*
X120262475Y-119300876D01*
X120214856Y-118586590D02*
X120262475Y-118491352D01*
X120262475Y-118491352D02*
X120262475Y-118300876D01*
X120262475Y-118300876D02*
X120214856Y-118205638D01*
X120214856Y-118205638D02*
X120119617Y-118158019D01*
X120119617Y-118158019D02*
X120071998Y-118158019D01*
X120071998Y-118158019D02*
X119976760Y-118205638D01*
X119976760Y-118205638D02*
X119929141Y-118300876D01*
X119929141Y-118300876D02*
X119929141Y-118443733D01*
X119929141Y-118443733D02*
X119881522Y-118538971D01*
X119881522Y-118538971D02*
X119786284Y-118586590D01*
X119786284Y-118586590D02*
X119738665Y-118586590D01*
X119738665Y-118586590D02*
X119643427Y-118538971D01*
X119643427Y-118538971D02*
X119595808Y-118443733D01*
X119595808Y-118443733D02*
X119595808Y-118300876D01*
X119595808Y-118300876D02*
X119643427Y-118205638D01*
X120262475Y-117300876D02*
X119738665Y-117300876D01*
X119738665Y-117300876D02*
X119643427Y-117348495D01*
X119643427Y-117348495D02*
X119595808Y-117443733D01*
X119595808Y-117443733D02*
X119595808Y-117634209D01*
X119595808Y-117634209D02*
X119643427Y-117729447D01*
X120214856Y-117300876D02*
X120262475Y-117396114D01*
X120262475Y-117396114D02*
X120262475Y-117634209D01*
X120262475Y-117634209D02*
X120214856Y-117729447D01*
X120214856Y-117729447D02*
X120119617Y-117777066D01*
X120119617Y-117777066D02*
X120024379Y-117777066D01*
X120024379Y-117777066D02*
X119929141Y-117729447D01*
X119929141Y-117729447D02*
X119881522Y-117634209D01*
X119881522Y-117634209D02*
X119881522Y-117396114D01*
X119881522Y-117396114D02*
X119833903Y-117300876D01*
X120262475Y-116824685D02*
X119595808Y-116824685D01*
X119786284Y-116824685D02*
X119691046Y-116777066D01*
X119691046Y-116777066D02*
X119643427Y-116729447D01*
X119643427Y-116729447D02*
X119595808Y-116634209D01*
X119595808Y-116634209D02*
X119595808Y-116538971D01*
X120262475Y-116205637D02*
X119595808Y-116205637D01*
X119262475Y-116205637D02*
X119310094Y-116253256D01*
X119310094Y-116253256D02*
X119357713Y-116205637D01*
X119357713Y-116205637D02*
X119310094Y-116158018D01*
X119310094Y-116158018D02*
X119262475Y-116205637D01*
X119262475Y-116205637D02*
X119357713Y-116205637D01*
X120262475Y-115586590D02*
X120214856Y-115681828D01*
X120214856Y-115681828D02*
X120167236Y-115729447D01*
X120167236Y-115729447D02*
X120071998Y-115777066D01*
X120071998Y-115777066D02*
X119786284Y-115777066D01*
X119786284Y-115777066D02*
X119691046Y-115729447D01*
X119691046Y-115729447D02*
X119643427Y-115681828D01*
X119643427Y-115681828D02*
X119595808Y-115586590D01*
X119595808Y-115586590D02*
X119595808Y-115443733D01*
X119595808Y-115443733D02*
X119643427Y-115348495D01*
X119643427Y-115348495D02*
X119691046Y-115300876D01*
X119691046Y-115300876D02*
X119786284Y-115253257D01*
X119786284Y-115253257D02*
X120071998Y-115253257D01*
X120071998Y-115253257D02*
X120167236Y-115300876D01*
X120167236Y-115300876D02*
X120214856Y-115348495D01*
X120214856Y-115348495D02*
X120262475Y-115443733D01*
X120262475Y-115443733D02*
X120262475Y-115586590D01*
X120262475Y-114062780D02*
X119262475Y-114062780D01*
X119262475Y-114062780D02*
X119976760Y-113729447D01*
X119976760Y-113729447D02*
X119262475Y-113396114D01*
X119262475Y-113396114D02*
X120262475Y-113396114D01*
X120167236Y-112919923D02*
X120214856Y-112872304D01*
X120214856Y-112872304D02*
X120262475Y-112919923D01*
X120262475Y-112919923D02*
X120214856Y-112967542D01*
X120214856Y-112967542D02*
X120167236Y-112919923D01*
X120167236Y-112919923D02*
X120262475Y-112919923D01*
X121872419Y-127824687D02*
X121396228Y-128158020D01*
X121872419Y-128396115D02*
X120872419Y-128396115D01*
X120872419Y-128396115D02*
X120872419Y-128015163D01*
X120872419Y-128015163D02*
X120920038Y-127919925D01*
X120920038Y-127919925D02*
X120967657Y-127872306D01*
X120967657Y-127872306D02*
X121062895Y-127824687D01*
X121062895Y-127824687D02*
X121205752Y-127824687D01*
X121205752Y-127824687D02*
X121300990Y-127872306D01*
X121300990Y-127872306D02*
X121348609Y-127919925D01*
X121348609Y-127919925D02*
X121396228Y-128015163D01*
X121396228Y-128015163D02*
X121396228Y-128396115D01*
X121824800Y-127015163D02*
X121872419Y-127110401D01*
X121872419Y-127110401D02*
X121872419Y-127300877D01*
X121872419Y-127300877D02*
X121824800Y-127396115D01*
X121824800Y-127396115D02*
X121729561Y-127443734D01*
X121729561Y-127443734D02*
X121348609Y-127443734D01*
X121348609Y-127443734D02*
X121253371Y-127396115D01*
X121253371Y-127396115D02*
X121205752Y-127300877D01*
X121205752Y-127300877D02*
X121205752Y-127110401D01*
X121205752Y-127110401D02*
X121253371Y-127015163D01*
X121253371Y-127015163D02*
X121348609Y-126967544D01*
X121348609Y-126967544D02*
X121443847Y-126967544D01*
X121443847Y-126967544D02*
X121539085Y-127443734D01*
X121205752Y-126538972D02*
X122205752Y-126538972D01*
X121253371Y-126538972D02*
X121205752Y-126443734D01*
X121205752Y-126443734D02*
X121205752Y-126253258D01*
X121205752Y-126253258D02*
X121253371Y-126158020D01*
X121253371Y-126158020D02*
X121300990Y-126110401D01*
X121300990Y-126110401D02*
X121396228Y-126062782D01*
X121396228Y-126062782D02*
X121681942Y-126062782D01*
X121681942Y-126062782D02*
X121777180Y-126110401D01*
X121777180Y-126110401D02*
X121824800Y-126158020D01*
X121824800Y-126158020D02*
X121872419Y-126253258D01*
X121872419Y-126253258D02*
X121872419Y-126443734D01*
X121872419Y-126443734D02*
X121824800Y-126538972D01*
X121777180Y-125634210D02*
X121824800Y-125586591D01*
X121824800Y-125586591D02*
X121872419Y-125634210D01*
X121872419Y-125634210D02*
X121824800Y-125681829D01*
X121824800Y-125681829D02*
X121777180Y-125634210D01*
X121777180Y-125634210D02*
X121872419Y-125634210D01*
X121872419Y-124396115D02*
X120872419Y-124396115D01*
X120872419Y-124396115D02*
X120872419Y-124158020D01*
X120872419Y-124158020D02*
X120920038Y-124015163D01*
X120920038Y-124015163D02*
X121015276Y-123919925D01*
X121015276Y-123919925D02*
X121110514Y-123872306D01*
X121110514Y-123872306D02*
X121300990Y-123824687D01*
X121300990Y-123824687D02*
X121443847Y-123824687D01*
X121443847Y-123824687D02*
X121634323Y-123872306D01*
X121634323Y-123872306D02*
X121729561Y-123919925D01*
X121729561Y-123919925D02*
X121824800Y-124015163D01*
X121824800Y-124015163D02*
X121872419Y-124158020D01*
X121872419Y-124158020D02*
X121872419Y-124396115D01*
X121872419Y-123253258D02*
X121824800Y-123348496D01*
X121824800Y-123348496D02*
X121777180Y-123396115D01*
X121777180Y-123396115D02*
X121681942Y-123443734D01*
X121681942Y-123443734D02*
X121396228Y-123443734D01*
X121396228Y-123443734D02*
X121300990Y-123396115D01*
X121300990Y-123396115D02*
X121253371Y-123348496D01*
X121253371Y-123348496D02*
X121205752Y-123253258D01*
X121205752Y-123253258D02*
X121205752Y-123110401D01*
X121205752Y-123110401D02*
X121253371Y-123015163D01*
X121253371Y-123015163D02*
X121300990Y-122967544D01*
X121300990Y-122967544D02*
X121396228Y-122919925D01*
X121396228Y-122919925D02*
X121681942Y-122919925D01*
X121681942Y-122919925D02*
X121777180Y-122967544D01*
X121777180Y-122967544D02*
X121824800Y-123015163D01*
X121824800Y-123015163D02*
X121872419Y-123110401D01*
X121872419Y-123110401D02*
X121872419Y-123253258D01*
X121872419Y-122491353D02*
X121205752Y-122491353D01*
X121300990Y-122491353D02*
X121253371Y-122443734D01*
X121253371Y-122443734D02*
X121205752Y-122348496D01*
X121205752Y-122348496D02*
X121205752Y-122205639D01*
X121205752Y-122205639D02*
X121253371Y-122110401D01*
X121253371Y-122110401D02*
X121348609Y-122062782D01*
X121348609Y-122062782D02*
X121872419Y-122062782D01*
X121348609Y-122062782D02*
X121253371Y-122015163D01*
X121253371Y-122015163D02*
X121205752Y-121919925D01*
X121205752Y-121919925D02*
X121205752Y-121777068D01*
X121205752Y-121777068D02*
X121253371Y-121681829D01*
X121253371Y-121681829D02*
X121348609Y-121634210D01*
X121348609Y-121634210D02*
X121872419Y-121634210D01*
X121777180Y-121158020D02*
X121824800Y-121110401D01*
X121824800Y-121110401D02*
X121872419Y-121158020D01*
X121872419Y-121158020D02*
X121824800Y-121205639D01*
X121824800Y-121205639D02*
X121777180Y-121158020D01*
X121777180Y-121158020D02*
X121872419Y-121158020D01*
X145756265Y-86530150D02*
X146899122Y-86530150D01*
X146327693Y-88530150D02*
X146327693Y-86530150D01*
X148327694Y-88434912D02*
X148137218Y-88530150D01*
X148137218Y-88530150D02*
X147756265Y-88530150D01*
X147756265Y-88530150D02*
X147565789Y-88434912D01*
X147565789Y-88434912D02*
X147470551Y-88244435D01*
X147470551Y-88244435D02*
X147470551Y-87482531D01*
X147470551Y-87482531D02*
X147565789Y-87292054D01*
X147565789Y-87292054D02*
X147756265Y-87196816D01*
X147756265Y-87196816D02*
X148137218Y-87196816D01*
X148137218Y-87196816D02*
X148327694Y-87292054D01*
X148327694Y-87292054D02*
X148422932Y-87482531D01*
X148422932Y-87482531D02*
X148422932Y-87673007D01*
X148422932Y-87673007D02*
X147470551Y-87863483D01*
X150137218Y-88434912D02*
X149946742Y-88530150D01*
X149946742Y-88530150D02*
X149565789Y-88530150D01*
X149565789Y-88530150D02*
X149375313Y-88434912D01*
X149375313Y-88434912D02*
X149280075Y-88339673D01*
X149280075Y-88339673D02*
X149184837Y-88149197D01*
X149184837Y-88149197D02*
X149184837Y-87577769D01*
X149184837Y-87577769D02*
X149280075Y-87387292D01*
X149280075Y-87387292D02*
X149375313Y-87292054D01*
X149375313Y-87292054D02*
X149565789Y-87196816D01*
X149565789Y-87196816D02*
X149946742Y-87196816D01*
X149946742Y-87196816D02*
X150137218Y-87292054D01*
X151280075Y-88530150D02*
X151089599Y-88434912D01*
X151089599Y-88434912D02*
X150994361Y-88244435D01*
X150994361Y-88244435D02*
X150994361Y-86530150D01*
X152899123Y-88530150D02*
X152899123Y-87482531D01*
X152899123Y-87482531D02*
X152803885Y-87292054D01*
X152803885Y-87292054D02*
X152613409Y-87196816D01*
X152613409Y-87196816D02*
X152232456Y-87196816D01*
X152232456Y-87196816D02*
X152041980Y-87292054D01*
X152899123Y-88434912D02*
X152708647Y-88530150D01*
X152708647Y-88530150D02*
X152232456Y-88530150D01*
X152232456Y-88530150D02*
X152041980Y-88434912D01*
X152041980Y-88434912D02*
X151946742Y-88244435D01*
X151946742Y-88244435D02*
X151946742Y-88053959D01*
X151946742Y-88053959D02*
X152041980Y-87863483D01*
X152041980Y-87863483D02*
X152232456Y-87768245D01*
X152232456Y-87768245D02*
X152708647Y-87768245D01*
X152708647Y-87768245D02*
X152899123Y-87673007D01*
X153851504Y-88530150D02*
X153851504Y-87196816D01*
X153851504Y-86530150D02*
X153756266Y-86625388D01*
X153756266Y-86625388D02*
X153851504Y-86720626D01*
X153851504Y-86720626D02*
X153946742Y-86625388D01*
X153946742Y-86625388D02*
X153851504Y-86530150D01*
X153851504Y-86530150D02*
X153851504Y-86720626D01*
X154803885Y-87196816D02*
X154803885Y-88530150D01*
X154803885Y-87387292D02*
X154899123Y-87292054D01*
X154899123Y-87292054D02*
X155089599Y-87196816D01*
X155089599Y-87196816D02*
X155375314Y-87196816D01*
X155375314Y-87196816D02*
X155565790Y-87292054D01*
X155565790Y-87292054D02*
X155661028Y-87482531D01*
X155661028Y-87482531D02*
X155661028Y-88530150D01*
X157470552Y-88530150D02*
X157470552Y-87482531D01*
X157470552Y-87482531D02*
X157375314Y-87292054D01*
X157375314Y-87292054D02*
X157184838Y-87196816D01*
X157184838Y-87196816D02*
X156803885Y-87196816D01*
X156803885Y-87196816D02*
X156613409Y-87292054D01*
X157470552Y-88434912D02*
X157280076Y-88530150D01*
X157280076Y-88530150D02*
X156803885Y-88530150D01*
X156803885Y-88530150D02*
X156613409Y-88434912D01*
X156613409Y-88434912D02*
X156518171Y-88244435D01*
X156518171Y-88244435D02*
X156518171Y-88053959D01*
X156518171Y-88053959D02*
X156613409Y-87863483D01*
X156613409Y-87863483D02*
X156803885Y-87768245D01*
X156803885Y-87768245D02*
X157280076Y-87768245D01*
X157280076Y-87768245D02*
X157470552Y-87673007D01*
X159280076Y-88530150D02*
X159280076Y-86530150D01*
X159280076Y-88434912D02*
X159089600Y-88530150D01*
X159089600Y-88530150D02*
X158708647Y-88530150D01*
X158708647Y-88530150D02*
X158518171Y-88434912D01*
X158518171Y-88434912D02*
X158422933Y-88339673D01*
X158422933Y-88339673D02*
X158327695Y-88149197D01*
X158327695Y-88149197D02*
X158327695Y-87577769D01*
X158327695Y-87577769D02*
X158422933Y-87387292D01*
X158422933Y-87387292D02*
X158518171Y-87292054D01*
X158518171Y-87292054D02*
X158708647Y-87196816D01*
X158708647Y-87196816D02*
X159089600Y-87196816D01*
X159089600Y-87196816D02*
X159280076Y-87292054D01*
X160518171Y-88530150D02*
X160327695Y-88434912D01*
X160327695Y-88434912D02*
X160232457Y-88339673D01*
X160232457Y-88339673D02*
X160137219Y-88149197D01*
X160137219Y-88149197D02*
X160137219Y-87577769D01*
X160137219Y-87577769D02*
X160232457Y-87387292D01*
X160232457Y-87387292D02*
X160327695Y-87292054D01*
X160327695Y-87292054D02*
X160518171Y-87196816D01*
X160518171Y-87196816D02*
X160803886Y-87196816D01*
X160803886Y-87196816D02*
X160994362Y-87292054D01*
X160994362Y-87292054D02*
X161089600Y-87387292D01*
X161089600Y-87387292D02*
X161184838Y-87577769D01*
X161184838Y-87577769D02*
X161184838Y-88149197D01*
X161184838Y-88149197D02*
X161089600Y-88339673D01*
X161089600Y-88339673D02*
X160994362Y-88434912D01*
X160994362Y-88434912D02*
X160803886Y-88530150D01*
X160803886Y-88530150D02*
X160518171Y-88530150D01*
X162041981Y-88530150D02*
X162041981Y-87196816D01*
X162041981Y-87577769D02*
X162137219Y-87387292D01*
X162137219Y-87387292D02*
X162232457Y-87292054D01*
X162232457Y-87292054D02*
X162422933Y-87196816D01*
X162422933Y-87196816D02*
X162613410Y-87196816D01*
X146041979Y-91750038D02*
X146041979Y-89750038D01*
X147184836Y-91750038D02*
X146327693Y-90607180D01*
X147184836Y-89750038D02*
X146041979Y-90892895D01*
X148803884Y-91654800D02*
X148613408Y-91750038D01*
X148613408Y-91750038D02*
X148232455Y-91750038D01*
X148232455Y-91750038D02*
X148041979Y-91654800D01*
X148041979Y-91654800D02*
X147946741Y-91464323D01*
X147946741Y-91464323D02*
X147946741Y-90702419D01*
X147946741Y-90702419D02*
X148041979Y-90511942D01*
X148041979Y-90511942D02*
X148232455Y-90416704D01*
X148232455Y-90416704D02*
X148613408Y-90416704D01*
X148613408Y-90416704D02*
X148803884Y-90511942D01*
X148803884Y-90511942D02*
X148899122Y-90702419D01*
X148899122Y-90702419D02*
X148899122Y-90892895D01*
X148899122Y-90892895D02*
X147946741Y-91083371D01*
X149565789Y-90416704D02*
X150041979Y-91750038D01*
X150518170Y-90416704D02*
X150041979Y-91750038D01*
X150041979Y-91750038D02*
X149851503Y-92226228D01*
X149851503Y-92226228D02*
X149756265Y-92321466D01*
X149756265Y-92321466D02*
X149565789Y-92416704D01*
X151280075Y-91750038D02*
X151280075Y-89750038D01*
X151280075Y-90511942D02*
X151470551Y-90416704D01*
X151470551Y-90416704D02*
X151851504Y-90416704D01*
X151851504Y-90416704D02*
X152041980Y-90511942D01*
X152041980Y-90511942D02*
X152137218Y-90607180D01*
X152137218Y-90607180D02*
X152232456Y-90797657D01*
X152232456Y-90797657D02*
X152232456Y-91369085D01*
X152232456Y-91369085D02*
X152137218Y-91559561D01*
X152137218Y-91559561D02*
X152041980Y-91654800D01*
X152041980Y-91654800D02*
X151851504Y-91750038D01*
X151851504Y-91750038D02*
X151470551Y-91750038D01*
X151470551Y-91750038D02*
X151280075Y-91654800D01*
X153375313Y-91750038D02*
X153184837Y-91654800D01*
X153184837Y-91654800D02*
X153089599Y-91559561D01*
X153089599Y-91559561D02*
X152994361Y-91369085D01*
X152994361Y-91369085D02*
X152994361Y-90797657D01*
X152994361Y-90797657D02*
X153089599Y-90607180D01*
X153089599Y-90607180D02*
X153184837Y-90511942D01*
X153184837Y-90511942D02*
X153375313Y-90416704D01*
X153375313Y-90416704D02*
X153661028Y-90416704D01*
X153661028Y-90416704D02*
X153851504Y-90511942D01*
X153851504Y-90511942D02*
X153946742Y-90607180D01*
X153946742Y-90607180D02*
X154041980Y-90797657D01*
X154041980Y-90797657D02*
X154041980Y-91369085D01*
X154041980Y-91369085D02*
X153946742Y-91559561D01*
X153946742Y-91559561D02*
X153851504Y-91654800D01*
X153851504Y-91654800D02*
X153661028Y-91750038D01*
X153661028Y-91750038D02*
X153375313Y-91750038D01*
X155756266Y-91750038D02*
X155756266Y-90702419D01*
X155756266Y-90702419D02*
X155661028Y-90511942D01*
X155661028Y-90511942D02*
X155470552Y-90416704D01*
X155470552Y-90416704D02*
X155089599Y-90416704D01*
X155089599Y-90416704D02*
X154899123Y-90511942D01*
X155756266Y-91654800D02*
X155565790Y-91750038D01*
X155565790Y-91750038D02*
X155089599Y-91750038D01*
X155089599Y-91750038D02*
X154899123Y-91654800D01*
X154899123Y-91654800D02*
X154803885Y-91464323D01*
X154803885Y-91464323D02*
X154803885Y-91273847D01*
X154803885Y-91273847D02*
X154899123Y-91083371D01*
X154899123Y-91083371D02*
X155089599Y-90988133D01*
X155089599Y-90988133D02*
X155565790Y-90988133D01*
X155565790Y-90988133D02*
X155756266Y-90892895D01*
X156708647Y-91750038D02*
X156708647Y-90416704D01*
X156708647Y-90797657D02*
X156803885Y-90607180D01*
X156803885Y-90607180D02*
X156899123Y-90511942D01*
X156899123Y-90511942D02*
X157089599Y-90416704D01*
X157089599Y-90416704D02*
X157280076Y-90416704D01*
X158803885Y-91750038D02*
X158803885Y-89750038D01*
X158803885Y-91654800D02*
X158613409Y-91750038D01*
X158613409Y-91750038D02*
X158232456Y-91750038D01*
X158232456Y-91750038D02*
X158041980Y-91654800D01*
X158041980Y-91654800D02*
X157946742Y-91559561D01*
X157946742Y-91559561D02*
X157851504Y-91369085D01*
X157851504Y-91369085D02*
X157851504Y-90797657D01*
X157851504Y-90797657D02*
X157946742Y-90607180D01*
X157946742Y-90607180D02*
X158041980Y-90511942D01*
X158041980Y-90511942D02*
X158232456Y-90416704D01*
X158232456Y-90416704D02*
X158613409Y-90416704D01*
X158613409Y-90416704D02*
X158803885Y-90511942D01*
X159756266Y-91750038D02*
X159756266Y-90416704D01*
X159756266Y-89750038D02*
X159661028Y-89845276D01*
X159661028Y-89845276D02*
X159756266Y-89940514D01*
X159756266Y-89940514D02*
X159851504Y-89845276D01*
X159851504Y-89845276D02*
X159756266Y-89750038D01*
X159756266Y-89750038D02*
X159756266Y-89940514D01*
X160708647Y-90416704D02*
X160708647Y-91750038D01*
X160708647Y-90607180D02*
X160803885Y-90511942D01*
X160803885Y-90511942D02*
X160994361Y-90416704D01*
X160994361Y-90416704D02*
X161280076Y-90416704D01*
X161280076Y-90416704D02*
X161470552Y-90511942D01*
X161470552Y-90511942D02*
X161565790Y-90702419D01*
X161565790Y-90702419D02*
X161565790Y-91750038D01*
X163375314Y-91750038D02*
X163375314Y-90702419D01*
X163375314Y-90702419D02*
X163280076Y-90511942D01*
X163280076Y-90511942D02*
X163089600Y-90416704D01*
X163089600Y-90416704D02*
X162708647Y-90416704D01*
X162708647Y-90416704D02*
X162518171Y-90511942D01*
X163375314Y-91654800D02*
X163184838Y-91750038D01*
X163184838Y-91750038D02*
X162708647Y-91750038D01*
X162708647Y-91750038D02*
X162518171Y-91654800D01*
X162518171Y-91654800D02*
X162422933Y-91464323D01*
X162422933Y-91464323D02*
X162422933Y-91273847D01*
X162422933Y-91273847D02*
X162518171Y-91083371D01*
X162518171Y-91083371D02*
X162708647Y-90988133D01*
X162708647Y-90988133D02*
X163184838Y-90988133D01*
X163184838Y-90988133D02*
X163375314Y-90892895D01*
X164041981Y-90416704D02*
X164803885Y-90416704D01*
X164327695Y-89750038D02*
X164327695Y-91464323D01*
X164327695Y-91464323D02*
X164422933Y-91654800D01*
X164422933Y-91654800D02*
X164613409Y-91750038D01*
X164613409Y-91750038D02*
X164803885Y-91750038D01*
X165756266Y-91750038D02*
X165565790Y-91654800D01*
X165565790Y-91654800D02*
X165470552Y-91559561D01*
X165470552Y-91559561D02*
X165375314Y-91369085D01*
X165375314Y-91369085D02*
X165375314Y-90797657D01*
X165375314Y-90797657D02*
X165470552Y-90607180D01*
X165470552Y-90607180D02*
X165565790Y-90511942D01*
X165565790Y-90511942D02*
X165756266Y-90416704D01*
X165756266Y-90416704D02*
X166041981Y-90416704D01*
X166041981Y-90416704D02*
X166232457Y-90511942D01*
X166232457Y-90511942D02*
X166327695Y-90607180D01*
X166327695Y-90607180D02*
X166422933Y-90797657D01*
X166422933Y-90797657D02*
X166422933Y-91369085D01*
X166422933Y-91369085D02*
X166327695Y-91559561D01*
X166327695Y-91559561D02*
X166232457Y-91654800D01*
X166232457Y-91654800D02*
X166041981Y-91750038D01*
X166041981Y-91750038D02*
X165756266Y-91750038D01*
X167280076Y-91750038D02*
X167280076Y-90416704D01*
X167280076Y-90797657D02*
X167375314Y-90607180D01*
X167375314Y-90607180D02*
X167470552Y-90511942D01*
X167470552Y-90511942D02*
X167661028Y-90416704D01*
X167661028Y-90416704D02*
X167851505Y-90416704D01*
D11*
X151061905Y-122932219D02*
X151061905Y-121932219D01*
X151061905Y-121932219D02*
X151300000Y-121932219D01*
X151300000Y-121932219D02*
X151442857Y-121979838D01*
X151442857Y-121979838D02*
X151538095Y-122075076D01*
X151538095Y-122075076D02*
X151585714Y-122170314D01*
X151585714Y-122170314D02*
X151633333Y-122360790D01*
X151633333Y-122360790D02*
X151633333Y-122503647D01*
X151633333Y-122503647D02*
X151585714Y-122694123D01*
X151585714Y-122694123D02*
X151538095Y-122789361D01*
X151538095Y-122789361D02*
X151442857Y-122884600D01*
X151442857Y-122884600D02*
X151300000Y-122932219D01*
X151300000Y-122932219D02*
X151061905Y-122932219D01*
X152014286Y-122027457D02*
X152061905Y-121979838D01*
X152061905Y-121979838D02*
X152157143Y-121932219D01*
X152157143Y-121932219D02*
X152395238Y-121932219D01*
X152395238Y-121932219D02*
X152490476Y-121979838D01*
X152490476Y-121979838D02*
X152538095Y-122027457D01*
X152538095Y-122027457D02*
X152585714Y-122122695D01*
X152585714Y-122122695D02*
X152585714Y-122217933D01*
X152585714Y-122217933D02*
X152538095Y-122360790D01*
X152538095Y-122360790D02*
X151966667Y-122932219D01*
X151966667Y-122932219D02*
X152585714Y-122932219D01*
D12*
X132016667Y-127661200D02*
X132159524Y-127708819D01*
X132159524Y-127708819D02*
X132397619Y-127708819D01*
X132397619Y-127708819D02*
X132492857Y-127661200D01*
X132492857Y-127661200D02*
X132540476Y-127613580D01*
X132540476Y-127613580D02*
X132588095Y-127518342D01*
X132588095Y-127518342D02*
X132588095Y-127423104D01*
X132588095Y-127423104D02*
X132540476Y-127327866D01*
X132540476Y-127327866D02*
X132492857Y-127280247D01*
X132492857Y-127280247D02*
X132397619Y-127232628D01*
X132397619Y-127232628D02*
X132207143Y-127185009D01*
X132207143Y-127185009D02*
X132111905Y-127137390D01*
X132111905Y-127137390D02*
X132064286Y-127089771D01*
X132064286Y-127089771D02*
X132016667Y-126994533D01*
X132016667Y-126994533D02*
X132016667Y-126899295D01*
X132016667Y-126899295D02*
X132064286Y-126804057D01*
X132064286Y-126804057D02*
X132111905Y-126756438D01*
X132111905Y-126756438D02*
X132207143Y-126708819D01*
X132207143Y-126708819D02*
X132445238Y-126708819D01*
X132445238Y-126708819D02*
X132588095Y-126756438D01*
X132921429Y-126708819D02*
X133159524Y-127708819D01*
X133159524Y-127708819D02*
X133350000Y-126994533D01*
X133350000Y-126994533D02*
X133540476Y-127708819D01*
X133540476Y-127708819D02*
X133778572Y-126708819D01*
X134683333Y-127708819D02*
X134111905Y-127708819D01*
X134397619Y-127708819D02*
X134397619Y-126708819D01*
X134397619Y-126708819D02*
X134302381Y-126851676D01*
X134302381Y-126851676D02*
X134207143Y-126946914D01*
X134207143Y-126946914D02*
X134111905Y-126994533D01*
X179866666Y-107214819D02*
X179866666Y-107929104D01*
X179866666Y-107929104D02*
X179819047Y-108071961D01*
X179819047Y-108071961D02*
X179723809Y-108167200D01*
X179723809Y-108167200D02*
X179580952Y-108214819D01*
X179580952Y-108214819D02*
X179485714Y-108214819D01*
X180866666Y-108214819D02*
X180295238Y-108214819D01*
X180580952Y-108214819D02*
X180580952Y-107214819D01*
X180580952Y-107214819D02*
X180485714Y-107357676D01*
X180485714Y-107357676D02*
X180390476Y-107452914D01*
X180390476Y-107452914D02*
X180295238Y-107500533D01*
D11*
X132011905Y-122932219D02*
X132011905Y-121932219D01*
X132011905Y-121932219D02*
X132250000Y-121932219D01*
X132250000Y-121932219D02*
X132392857Y-121979838D01*
X132392857Y-121979838D02*
X132488095Y-122075076D01*
X132488095Y-122075076D02*
X132535714Y-122170314D01*
X132535714Y-122170314D02*
X132583333Y-122360790D01*
X132583333Y-122360790D02*
X132583333Y-122503647D01*
X132583333Y-122503647D02*
X132535714Y-122694123D01*
X132535714Y-122694123D02*
X132488095Y-122789361D01*
X132488095Y-122789361D02*
X132392857Y-122884600D01*
X132392857Y-122884600D02*
X132250000Y-122932219D01*
X132250000Y-122932219D02*
X132011905Y-122932219D01*
X133535714Y-122932219D02*
X132964286Y-122932219D01*
X133250000Y-122932219D02*
X133250000Y-121932219D01*
X133250000Y-121932219D02*
X133154762Y-122075076D01*
X133154762Y-122075076D02*
X133059524Y-122170314D01*
X133059524Y-122170314D02*
X132964286Y-122217933D01*
X170111905Y-122932219D02*
X170111905Y-121932219D01*
X170111905Y-121932219D02*
X170350000Y-121932219D01*
X170350000Y-121932219D02*
X170492857Y-121979838D01*
X170492857Y-121979838D02*
X170588095Y-122075076D01*
X170588095Y-122075076D02*
X170635714Y-122170314D01*
X170635714Y-122170314D02*
X170683333Y-122360790D01*
X170683333Y-122360790D02*
X170683333Y-122503647D01*
X170683333Y-122503647D02*
X170635714Y-122694123D01*
X170635714Y-122694123D02*
X170588095Y-122789361D01*
X170588095Y-122789361D02*
X170492857Y-122884600D01*
X170492857Y-122884600D02*
X170350000Y-122932219D01*
X170350000Y-122932219D02*
X170111905Y-122932219D01*
X171016667Y-121932219D02*
X171635714Y-121932219D01*
X171635714Y-121932219D02*
X171302381Y-122313171D01*
X171302381Y-122313171D02*
X171445238Y-122313171D01*
X171445238Y-122313171D02*
X171540476Y-122360790D01*
X171540476Y-122360790D02*
X171588095Y-122408409D01*
X171588095Y-122408409D02*
X171635714Y-122503647D01*
X171635714Y-122503647D02*
X171635714Y-122741742D01*
X171635714Y-122741742D02*
X171588095Y-122836980D01*
X171588095Y-122836980D02*
X171540476Y-122884600D01*
X171540476Y-122884600D02*
X171445238Y-122932219D01*
X171445238Y-122932219D02*
X171159524Y-122932219D01*
X171159524Y-122932219D02*
X171064286Y-122884600D01*
X171064286Y-122884600D02*
X171016667Y-122836980D01*
D12*
X170116667Y-127661200D02*
X170259524Y-127708819D01*
X170259524Y-127708819D02*
X170497619Y-127708819D01*
X170497619Y-127708819D02*
X170592857Y-127661200D01*
X170592857Y-127661200D02*
X170640476Y-127613580D01*
X170640476Y-127613580D02*
X170688095Y-127518342D01*
X170688095Y-127518342D02*
X170688095Y-127423104D01*
X170688095Y-127423104D02*
X170640476Y-127327866D01*
X170640476Y-127327866D02*
X170592857Y-127280247D01*
X170592857Y-127280247D02*
X170497619Y-127232628D01*
X170497619Y-127232628D02*
X170307143Y-127185009D01*
X170307143Y-127185009D02*
X170211905Y-127137390D01*
X170211905Y-127137390D02*
X170164286Y-127089771D01*
X170164286Y-127089771D02*
X170116667Y-126994533D01*
X170116667Y-126994533D02*
X170116667Y-126899295D01*
X170116667Y-126899295D02*
X170164286Y-126804057D01*
X170164286Y-126804057D02*
X170211905Y-126756438D01*
X170211905Y-126756438D02*
X170307143Y-126708819D01*
X170307143Y-126708819D02*
X170545238Y-126708819D01*
X170545238Y-126708819D02*
X170688095Y-126756438D01*
X171021429Y-126708819D02*
X171259524Y-127708819D01*
X171259524Y-127708819D02*
X171450000Y-126994533D01*
X171450000Y-126994533D02*
X171640476Y-127708819D01*
X171640476Y-127708819D02*
X171878572Y-126708819D01*
X172164286Y-126708819D02*
X172783333Y-126708819D01*
X172783333Y-126708819D02*
X172450000Y-127089771D01*
X172450000Y-127089771D02*
X172592857Y-127089771D01*
X172592857Y-127089771D02*
X172688095Y-127137390D01*
X172688095Y-127137390D02*
X172735714Y-127185009D01*
X172735714Y-127185009D02*
X172783333Y-127280247D01*
X172783333Y-127280247D02*
X172783333Y-127518342D01*
X172783333Y-127518342D02*
X172735714Y-127613580D01*
X172735714Y-127613580D02*
X172688095Y-127661200D01*
X172688095Y-127661200D02*
X172592857Y-127708819D01*
X172592857Y-127708819D02*
X172307143Y-127708819D01*
X172307143Y-127708819D02*
X172211905Y-127661200D01*
X172211905Y-127661200D02*
X172164286Y-127613580D01*
X151066667Y-127661200D02*
X151209524Y-127708819D01*
X151209524Y-127708819D02*
X151447619Y-127708819D01*
X151447619Y-127708819D02*
X151542857Y-127661200D01*
X151542857Y-127661200D02*
X151590476Y-127613580D01*
X151590476Y-127613580D02*
X151638095Y-127518342D01*
X151638095Y-127518342D02*
X151638095Y-127423104D01*
X151638095Y-127423104D02*
X151590476Y-127327866D01*
X151590476Y-127327866D02*
X151542857Y-127280247D01*
X151542857Y-127280247D02*
X151447619Y-127232628D01*
X151447619Y-127232628D02*
X151257143Y-127185009D01*
X151257143Y-127185009D02*
X151161905Y-127137390D01*
X151161905Y-127137390D02*
X151114286Y-127089771D01*
X151114286Y-127089771D02*
X151066667Y-126994533D01*
X151066667Y-126994533D02*
X151066667Y-126899295D01*
X151066667Y-126899295D02*
X151114286Y-126804057D01*
X151114286Y-126804057D02*
X151161905Y-126756438D01*
X151161905Y-126756438D02*
X151257143Y-126708819D01*
X151257143Y-126708819D02*
X151495238Y-126708819D01*
X151495238Y-126708819D02*
X151638095Y-126756438D01*
X151971429Y-126708819D02*
X152209524Y-127708819D01*
X152209524Y-127708819D02*
X152400000Y-126994533D01*
X152400000Y-126994533D02*
X152590476Y-127708819D01*
X152590476Y-127708819D02*
X152828572Y-126708819D01*
X153161905Y-126804057D02*
X153209524Y-126756438D01*
X153209524Y-126756438D02*
X153304762Y-126708819D01*
X153304762Y-126708819D02*
X153542857Y-126708819D01*
X153542857Y-126708819D02*
X153638095Y-126756438D01*
X153638095Y-126756438D02*
X153685714Y-126804057D01*
X153685714Y-126804057D02*
X153733333Y-126899295D01*
X153733333Y-126899295D02*
X153733333Y-126994533D01*
X153733333Y-126994533D02*
X153685714Y-127137390D01*
X153685714Y-127137390D02*
X153114286Y-127708819D01*
X153114286Y-127708819D02*
X153733333Y-127708819D01*
%TO.C,SW1*%
D13*
X126365000Y-112395000D02*
X140335000Y-112395000D01*
X126365000Y-126365000D02*
X126365000Y-112395000D01*
X140335000Y-112395000D02*
X140335000Y-126365000D01*
X140335000Y-126365000D02*
X126365000Y-126365000D01*
%TO.C,J1*%
X178820000Y-104110000D02*
X178820000Y-96380000D01*
X181580000Y-96380000D02*
X178820000Y-96380000D01*
X181580000Y-104110000D02*
X178820000Y-104110000D01*
X181580000Y-104110000D02*
X181580000Y-96380000D01*
X181580000Y-105380000D02*
X181580000Y-106760000D01*
X181580000Y-106760000D02*
X180200000Y-106760000D01*
%TO.C,SW3*%
X164465000Y-112395000D02*
X178435000Y-112395000D01*
X164465000Y-126365000D02*
X164465000Y-112395000D01*
X178435000Y-112395000D02*
X178435000Y-126365000D01*
X178435000Y-126365000D02*
X164465000Y-126365000D01*
%TO.C,SW2*%
X145415000Y-112395000D02*
X159385000Y-112395000D01*
X145415000Y-126365000D02*
X145415000Y-112395000D01*
X159385000Y-112395000D02*
X159385000Y-126365000D01*
X159385000Y-126365000D02*
X145415000Y-126365000D01*
%TD*%
M02*
