%TF.GenerationSoftware,KiCad,Pcbnew,10.0.3*%
%TF.CreationDate,2026-06-27T18:14:26-04:00*%
%TF.ProjectId,Teclado3Teclas,5465636c-6164-46f3-9354-65636c61732e,rev?*%
%TF.SameCoordinates,Original*%
%TF.FileFunction,Soldermask,Bot*%
%TF.FilePolarity,Negative*%
%FSLAX46Y46*%
G04 Gerber Fmt 4.6, Leading zero omitted, Abs format (unit mm)*
G04 Created by KiCad (PCBNEW 10.0.3) date 2026-06-27 18:14:26*
%MOMM*%
%LPD*%
G01*
G04 APERTURE LIST*
G04 Aperture macros list*
%AMRoundRect*
0 Rectangle with rounded corners*
0 $1 Rounding radius*
0 $2 $3 $4 $5 $6 $7 $8 $9 X,Y pos of 4 corners*
0 Add a 4 corners polygon primitive as box body*
4,1,4,$2,$3,$4,$5,$6,$7,$8,$9,$2,$3,0*
0 Add four circle primitives for the rounded corners*
1,1,$1+$1,$2,$3*
1,1,$1+$1,$4,$5*
1,1,$1+$1,$6,$7*
1,1,$1+$1,$8,$9*
0 Add four rect primitives between the rounded corners*
20,1,$1+$1,$2,$3,$4,$5,0*
20,1,$1+$1,$4,$5,$6,$7,0*
20,1,$1+$1,$6,$7,$8,$9,0*
20,1,$1+$1,$8,$9,$2,$3,0*%
G04 Aperture macros list end*
%ADD10RoundRect,0.082000X0.718000X-0.328000X0.718000X0.328000X-0.718000X0.328000X-0.718000X-0.328000X0*%
%ADD11C,1.700000*%
%ADD12C,4.000000*%
%ADD13C,2.200000*%
%ADD14R,1.700000X1.700000*%
%ADD15R,3.500000X1.700000*%
%ADD16O,3.600000X1.700000*%
%ADD17O,3.700000X1.700000*%
G04 APERTURE END LIST*
D10*
%TO.C,D2*%
X154999999Y-120232842D03*
X154999999Y-118732842D03*
X149799999Y-118732842D03*
X149799999Y-120232842D03*
%TD*%
D11*
%TO.C,SW1*%
X138430000Y-119380000D03*
D12*
X133350000Y-119380000D03*
D11*
X128270000Y-119380000D03*
D13*
X130810000Y-124460000D03*
X137160000Y-121920000D03*
%TD*%
D14*
%TO.C,J1*%
X180200000Y-105380000D03*
D11*
X180200000Y-102840000D03*
X180200000Y-100300000D03*
X180200000Y-97760000D03*
%TD*%
D10*
%TO.C,D1*%
X135949999Y-120232842D03*
X135949999Y-118732842D03*
X130749999Y-118732842D03*
X130749999Y-120232842D03*
%TD*%
%TO.C,D3*%
X174049999Y-120232842D03*
X174049999Y-118732842D03*
X168849999Y-118732842D03*
X168849999Y-120232842D03*
%TD*%
D11*
%TO.C,SW3*%
X176530000Y-119380000D03*
D12*
X171450000Y-119380000D03*
D11*
X166370000Y-119380000D03*
D13*
X168910000Y-124460000D03*
X175260000Y-121920000D03*
%TD*%
D11*
%TO.C,SW2*%
X157480000Y-119380000D03*
D12*
X152400000Y-119380000D03*
D11*
X147320000Y-119380000D03*
D13*
X149860000Y-124460000D03*
X156210000Y-121920000D03*
%TD*%
D15*
%TO.C,U1*%
X140800000Y-90700000D03*
D16*
X140800000Y-93240000D03*
X140800000Y-95780000D03*
X140800000Y-98320000D03*
X140800000Y-100860000D03*
X140800000Y-103400000D03*
X140800000Y-105940000D03*
X123550000Y-105940000D03*
X123550000Y-103400000D03*
X123550000Y-100860000D03*
D17*
X123550000Y-98320000D03*
X123550000Y-95780000D03*
X123550000Y-93240000D03*
X123550000Y-90700000D03*
%TD*%
M02*
