M48
; DRILL file KiCad 10.0.3 date 2026-06-27T18:14:38
; FORMAT={-:-/ absolute / metric / decimal}
; #@! TF.CreationDate,2026-06-27T18:14:38-04:00
; #@! TF.GenerationSoftware,Kicad,Pcbnew,10.0.3
; #@! TF.FileFunction,Plated,1,2,PTH
FMAT,2
METRIC
; #@! TA.AperFunction,Plated,PTH,ViaDrill
T1C0.300
; #@! TA.AperFunction,Plated,PTH,ComponentDrill
T2C1.000
; #@! TA.AperFunction,Plated,PTH,ComponentDrill
T3C1.500
%
G90
G05
T1
X128.6Y-116.5
X135.4Y-124.2
X136.2Y-116.3
X143.6Y-117.1
X144.9Y-99.8
X145.2Y-122.2
X155.8Y-117.2
X159.1Y-121.7
X160.0Y-116.2
X166.2Y-115.9
X168.2Y-122.2
X170.7Y-116.1
T2
X124.55Y-90.7
X124.55Y-93.24
X124.55Y-95.78
X124.55Y-98.32
X124.55Y-100.86
X124.55Y-103.4
X124.55Y-105.94
X139.8Y-90.7
X139.8Y-93.24
X139.8Y-95.78
X139.8Y-98.32
X139.8Y-100.86
X139.8Y-103.4
X139.8Y-105.94
X180.2Y-97.76
X180.2Y-100.3
X180.2Y-102.84
X180.2Y-105.38
T3
X130.81Y-124.46
X137.16Y-121.92
X149.86Y-124.46
X156.21Y-121.92
X168.91Y-124.46
X175.26Y-121.92
M30
