%TF.GenerationSoftware,KiCad,Pcbnew,10.0.3*%
%TF.CreationDate,2026-06-27T18:14:25-04:00*%
%TF.ProjectId,Teclado3Teclas,5465636c-6164-46f3-9354-65636c61732e,rev?*%
%TF.SameCoordinates,Original*%
%TF.FileFunction,Copper,L1,Top*%
%TF.FilePolarity,Positive*%
%FSLAX46Y46*%
G04 Gerber Fmt 4.6, Leading zero omitted, Abs format (unit mm)*
G04 Created by KiCad (PCBNEW 10.0.3) date 2026-06-27 18:14:25*
%MOMM*%
%LPD*%
G01*
G04 APERTURE LIST*
%TA.AperFunction,ComponentPad*%
%ADD10C,2.200000*%
%TD*%
%TA.AperFunction,ComponentPad*%
%ADD11R,1.700000X1.700000*%
%TD*%
%TA.AperFunction,ComponentPad*%
%ADD12C,1.700000*%
%TD*%
%TA.AperFunction,ComponentPad*%
%ADD13R,3.500000X1.700000*%
%TD*%
%TA.AperFunction,ComponentPad*%
%ADD14O,3.600000X1.700000*%
%TD*%
%TA.AperFunction,ComponentPad*%
%ADD15O,3.700000X1.700000*%
%TD*%
%TA.AperFunction,ViaPad*%
%ADD16C,0.600000*%
%TD*%
%TA.AperFunction,Conductor*%
%ADD17C,0.300000*%
%TD*%
G04 APERTURE END LIST*
D10*
%TO.P,SW1,1,1_1*%
%TO.N,Net-(U1-PA02_A0_D0)*%
X130810000Y-124460000D03*
%TO.P,SW1,2,2_2*%
%TO.N,GND*%
X137160000Y-121920000D03*
%TD*%
D11*
%TO.P,J1,1,Pin_1_1*%
%TO.N,GND*%
X180200000Y-105380000D03*
D12*
%TO.P,J1,2,Pin_2_2*%
%TO.N,+3V3*%
X180200000Y-102840000D03*
%TO.P,J1,3,Pin_3_3*%
%TO.N,Net-(J1-Pin_3)*%
X180200000Y-100300000D03*
%TO.P,J1,4,Pin_4_4*%
%TO.N,Net-(J1-Pin_4)*%
X180200000Y-97760000D03*
%TD*%
D10*
%TO.P,SW3,1,1_1*%
%TO.N,Net-(U1-PA10_A2_D2)*%
X168910000Y-124460000D03*
%TO.P,SW3,2,2_2*%
%TO.N,GND*%
X175260000Y-121920000D03*
%TD*%
%TO.P,SW2,1,1_1*%
%TO.N,Net-(U1-PA4_A1_D1)*%
X149860000Y-124460000D03*
%TO.P,SW2,2,2_2*%
%TO.N,GND*%
X156210000Y-121920000D03*
%TD*%
D13*
%TO.P,U1,1,PA02_A0_D0_1*%
%TO.N,Net-(U1-PA02_A0_D0)*%
X140800000Y-90700000D03*
D14*
%TO.P,U1,2,PA4_A1_D1_2*%
%TO.N,Net-(U1-PA4_A1_D1)*%
X140800000Y-93240000D03*
%TO.P,U1,3,PA10_A2_D2_3*%
%TO.N,Net-(U1-PA10_A2_D2)*%
X140800000Y-95780000D03*
%TO.P,U1,4,PA11_A3_D3_4*%
%TO.N,Net-(D1-DIN)*%
X140800000Y-98320000D03*
%TO.P,U1,5,PA8_A4_D4_SDA_5*%
%TO.N,Net-(J1-Pin_4)*%
X140800000Y-100860000D03*
%TO.P,U1,6,PA9_A5_D5_SCL_6*%
%TO.N,Net-(J1-Pin_3)*%
X140800000Y-103400000D03*
%TO.P,U1,7,PB08_A6_D6_TX_7*%
%TO.N,unconnected-(U1-PB08_A6_D6_TX-Pad7)*%
X140800000Y-105940000D03*
%TO.P,U1,8,PB09_A7_D7_RX_8*%
%TO.N,unconnected-(U1-PB09_A7_D7_RX-Pad8)*%
X123550000Y-105940000D03*
%TO.P,U1,9,PA7_A8_D8_SCK_9*%
%TO.N,unconnected-(U1-PA7_A8_D8_SCK-Pad9)*%
X123550000Y-103400000D03*
%TO.P,U1,10,PA5_A9_D9_MISO_10*%
%TO.N,unconnected-(U1-PA5_A9_D9_MISO-Pad10)*%
X123550000Y-100860000D03*
D15*
%TO.P,U1,11,PA6_A10_D10_MOSI_11*%
%TO.N,unconnected-(U1-PA6_A10_D10_MOSI-Pad11)*%
X123550000Y-98320000D03*
%TO.P,U1,12,3V3_12*%
%TO.N,+3V3*%
X123550000Y-95780000D03*
%TO.P,U1,13,GND_13*%
%TO.N,GND*%
X123550000Y-93240000D03*
%TO.P,U1,14,5V_14*%
%TO.N,unconnected-(U1-5V-Pad14)*%
X123550000Y-90700000D03*
%TD*%
D16*
%TO.N,+3V3*%
X135400000Y-124200000D03*
%TO.N,Net-(D2-DOUT)*%
X155800000Y-117200000D03*
X168200000Y-122200000D03*
%TO.N,GND*%
X136200000Y-116300000D03*
X128600000Y-116500000D03*
X160000000Y-116200000D03*
X159100000Y-121700000D03*
X166200000Y-115900000D03*
X170700000Y-116100000D03*
%TO.N,Net-(D1-DOUT)*%
X145200000Y-122200000D03*
X143600000Y-117100000D03*
%TO.N,Net-(U1-PA10_A2_D2)*%
X144900000Y-99800000D03*
%TD*%
%TO.N,+3V3*%
D17*
X124550000Y-95780000D02*
X125750000Y-96980000D01*
X125750000Y-96980000D02*
X125750000Y-121450610D01*
X130209390Y-125910000D02*
X133690000Y-125910000D01*
X125750000Y-121450610D02*
X130209390Y-125910000D01*
X133690000Y-125910000D02*
X135400000Y-124200000D01*
%TO.N,Net-(D2-DOUT)*%
X162422233Y-117200000D02*
X167422233Y-122200000D01*
X167422233Y-122200000D02*
X168200000Y-122200000D01*
X155800000Y-117200000D02*
X162422233Y-117200000D01*
%TO.N,GND*%
X180200000Y-110800000D02*
X180200000Y-105380000D01*
X175260000Y-121920000D02*
X175260000Y-117260000D01*
X174500000Y-116500000D02*
X180200000Y-110800000D01*
X160000000Y-116200000D02*
X165900000Y-116200000D01*
X128600000Y-97290000D02*
X128600000Y-116500000D01*
X156430000Y-121700000D02*
X156210000Y-121920000D01*
X175260000Y-117260000D02*
X174500000Y-116500000D01*
X137160000Y-121920000D02*
X137160000Y-117260000D01*
X174500000Y-116500000D02*
X171100000Y-116500000D01*
X137160000Y-117260000D02*
X136200000Y-116300000D01*
X159100000Y-121700000D02*
X156430000Y-121700000D01*
X124550000Y-93240000D02*
X128600000Y-97290000D01*
X165900000Y-116200000D02*
X166200000Y-115900000D01*
X171100000Y-116500000D02*
X170700000Y-116100000D01*
%TO.N,Net-(D1-DOUT)*%
X143600000Y-120600000D02*
X145200000Y-122200000D01*
X143600000Y-117100000D02*
X143600000Y-120600000D01*
%TO.N,Net-(U1-PA02_A0_D0)*%
X139800000Y-90700000D02*
X129520000Y-100980000D01*
X129520000Y-100980000D02*
X129520000Y-123170000D01*
X129520000Y-123170000D02*
X130810000Y-124460000D01*
%TO.N,Net-(J1-Pin_3)*%
X139800000Y-103400000D02*
X175700000Y-103400000D01*
X175700000Y-103400000D02*
X178800000Y-100300000D01*
X178800000Y-100300000D02*
X180200000Y-100300000D01*
%TO.N,Net-(J1-Pin_4)*%
X139800000Y-100860000D02*
X175700000Y-100860000D01*
X175700000Y-100860000D02*
X178800000Y-97760000D01*
X178800000Y-97760000D02*
X180200000Y-97760000D01*
%TO.N,Net-(U1-PA10_A2_D2)*%
X144900000Y-99700000D02*
X144900000Y-99800000D01*
X139800000Y-95780000D02*
X140980000Y-95780000D01*
X140980000Y-95780000D02*
X144900000Y-99700000D01*
%TO.N,Net-(U1-PA4_A1_D1)*%
X149860000Y-124460000D02*
X149860000Y-117647056D01*
X138650000Y-94390000D02*
X139800000Y-93240000D01*
X149860000Y-117647056D02*
X138650000Y-106437056D01*
X138650000Y-106437056D02*
X138650000Y-94390000D01*
%TD*%
M02*
